<svg width="120" height="120" viewBox="0 0 120 120" fill="none" xmlns="http://www.w3.org/2000/svg">
<rect x="0.222222" y="0.222222" width="119.556" height="119.556" rx="21.1111" fill="white"/>
<rect x="0.222222" y="0.222222" width="119.556" height="119.556" rx="21.1111" stroke="black" stroke-width="0.444444"/>
<path d="M38.1793 87.9318C35.6599 87.9318 33.3735 87.4573 31.3201 86.5082C29.2666 85.5419 27.6359 84.1528 26.428 82.3409C25.2201 80.5118 24.6162 78.303 24.6162 75.7146C24.6162 73.4369 25.0648 71.5905 25.9621 70.1755C26.8594 68.7433 28.0587 67.6216 29.56 66.8106C31.0612 65.9996 32.7178 65.3956 34.5297 64.9987C36.3588 64.5846 38.1965 64.2567 40.0429 64.0152C42.4587 63.7045 44.4173 63.4716 45.9186 63.3163C47.4371 63.1437 48.5415 62.859 49.2317 62.4621C49.9392 62.0652 50.2929 61.375 50.2929 60.3914V60.1843C50.2929 57.6305 49.5941 55.646 48.1963 54.2311C46.8159 52.8161 44.7193 52.1086 41.9066 52.1086C38.9903 52.1086 36.7039 52.7471 35.0473 54.024C33.3908 55.3009 32.226 56.6641 31.553 58.1136L25.755 56.0429C26.7904 53.6271 28.1709 51.7462 29.8965 50.4003C31.6393 49.037 33.5375 48.088 35.5909 47.553C37.6616 47.0008 39.6978 46.7247 41.6995 46.7247C42.9764 46.7247 44.4432 46.8801 46.0997 47.1907C47.7736 47.484 49.387 48.0966 50.94 49.0284C52.5103 49.9602 53.8131 51.3666 54.8485 53.2475C55.8838 55.1284 56.4015 57.6477 56.4015 60.8056V87H50.2929V81.6162H49.9823C49.5682 82.479 48.8779 83.4021 47.9116 84.3857C46.9453 85.3693 45.6597 86.2062 44.0549 86.8965C42.4501 87.5867 40.4916 87.9318 38.1793 87.9318ZM39.1111 82.4444C41.5269 82.4444 43.5631 81.9699 45.2197 81.0208C46.8935 80.0718 48.1532 78.8466 48.9987 77.3453C49.8615 75.8441 50.2929 74.2652 50.2929 72.6086V67.0177C50.0341 67.3283 49.4646 67.613 48.5846 67.8718C47.7218 68.1134 46.721 68.3291 45.5821 68.5189C44.4604 68.6915 43.3647 68.8468 42.2948 68.9848C41.2422 69.1056 40.388 69.2092 39.7323 69.2955C38.1448 69.5025 36.6608 69.839 35.2803 70.3049C33.9171 70.7536 32.8127 71.4352 31.9672 72.3497C31.1389 73.2471 30.7247 74.4722 30.7247 76.0253C30.7247 78.1477 31.5099 79.7525 33.0802 80.8396C34.6677 81.9095 36.678 82.4444 39.1111 82.4444ZM73.6596 33.9899V87H67.551V33.9899H73.6596ZM89.2999 87.4141C88.0229 87.4141 86.9272 86.9569 86.0126 86.0423C85.0981 85.1277 84.6408 84.032 84.6408 82.7551C84.6408 81.4781 85.0981 80.3824 86.0126 79.4678C86.9272 78.5532 88.0229 78.096 89.2999 78.096C90.5768 78.096 91.6726 78.5532 92.5871 79.4678C93.5017 80.3824 93.959 81.4781 93.959 82.7551C93.959 83.6006 93.7433 84.3771 93.3119 85.0846C92.8977 85.7921 92.3369 86.3615 91.6294 86.7929C90.9392 87.2071 90.1627 87.4141 89.2999 87.4141Z" fill="black"/>
</svg>
